<svg width="800" height="600" xmlns="http://www.w3.org/2000/svg">
  <defs>
    <linearGradient id="grad1" x1="0%" y1="0%" x2="100%" y2="100%">
      <stop offset="0%" style="stop-color:#3498db;stop-opacity:1" />
      <stop offset="100%" style="stop-color:#8e44ad;stop-opacity:1" />
    </linearGradient>
  </defs>
  <rect width="100%" height="100%" fill="url(#grad1)"/>
  <!-- Office Building Icon -->
  <rect x="350" y="200" width="150" height="300" fill="#ecf0f1" rx="5" ry="5" stroke="#34495e" stroke-width="5"/>
  <!-- Windows -->
  <rect x="370" y="230" width="30" height="30" fill="#3498db" stroke="#2980b9" stroke-width="2"/>
  <rect x="420" y="230" width="30" height="30" fill="#3498db" stroke="#2980b9" stroke-width="2"/>
  <rect x="370" y="280" width="30" height="30" fill="#3498db" stroke="#2980b9" stroke-width="2"/>
  <rect x="420" y="280" width="30" height="30" fill="#3498db" stroke="#2980b9" stroke-width="2"/>
  <rect x="370" y="330" width="30" height="30" fill="#3498db" stroke="#2980b9" stroke-width="2"/>
  <rect x="420" y="330" width="30" height="30" fill="#3498db" stroke="#2980b9" stroke-width="2"/>
  <!-- Door -->
  <rect x="390" y="430" width="60" height="70" fill="#34495e"/>
  <!-- Technology Elements -->
  <circle cx="200" cy="200" r="50" fill="#e74c3c" opacity="0.7"/>
  <circle cx="600" cy="300" r="70" fill="#2ecc71" opacity="0.7"/>
  <circle cx="150" cy="450" r="60" fill="#f39c12" opacity="0.7"/>
  <circle cx="650" cy="150" r="40" fill="#9b59b6" opacity="0.7"/>
  <!-- Binary Code Background -->
  <text x="100" y="100" font-family="Courier New" font-size="16" fill="#ecf0f1">0101010101010</text>
  <text x="100" y="120" font-family="Courier New" font-size="16" fill="#ecf0f1">1010101010101</text>
  <text x="100" y="140" font-family="Courier New" font-size="16" fill="#ecf0f1">0101010101010</text>
  <text x="600" y="400" font-family="Courier New" font-size="16" fill="#ecf0f1">0101010101010</text>
  <text x="600" y="420" font-family="Courier New" font-size="16" fill="#ecf0f1">1010101010101</text>
  <text x="600" y="440" font-family="Courier New" font-size="16" fill="#ecf0f1">0101010101010</text>
  <!-- Title -->
  <text x="400" y="150" font-family="Arial" font-size="24" fill="#ffffff" text-anchor="middle" font-weight="bold">PALANTIRI TECHNOLOGY</text>
  <text x="400" y="520" font-family="Arial" font-size="18" fill="#ffffff" text-anchor="middle">Modern Tech Solutions</text>
</svg>
