<svg width="1200" height="600" xmlns="http://www.w3.org/2000/svg">
  <defs>
    <linearGradient id="grad1" x1="0%" y1="0%" x2="100%" y2="100%">
      <stop offset="0%" style="stop-color:#2980b9;stop-opacity:1" />
      <stop offset="100%" style="stop-color:#8e44ad;stop-opacity:1" />
    </linearGradient>
  </defs>
  <rect width="100%" height="100%" fill="url(#grad1)"/>
  
  <!-- Abstract Circuit Pattern -->
  <path d="M0,100 L200,100 L250,150 L450,150 L500,200 L700,200 L750,150 L950,150 L1000,100 L1200,100" 
        stroke="#ecf0f1" stroke-width="3" fill="none"/>
  <path d="M0,300 L300,300 L350,350 L550,350 L600,300 L800,300 L850,350 L1050,350 L1100,300 L1200,300" 
        stroke="#ecf0f1" stroke-width="3" fill="none"/>
  <path d="M0,500 L400,500 L450,450 L650,450 L700,500 L900,500 L950,450 L1150,450 L1200,500" 
        stroke="#ecf0f1" stroke-width="3" fill="none"/>
  
  <!-- Circuit Nodes -->
  <circle cx="200" cy="100" r="8" fill="#f1c40f"/>
  <circle cx="250" cy="150" r="8" fill="#f1c40f"/>
  <circle cx="450" cy="150" r="8" fill="#f1c40f"/>
  <circle cx="500" cy="200" r="8" fill="#f1c40f"/>
  <circle cx="700" cy="200" r="8" fill="#f1c40f"/>
  <circle cx="750" cy="150" r="8" fill="#f1c40f"/>
  <circle cx="950" cy="150" r="8" fill="#f1c40f"/>
  <circle cx="1000" cy="100" r="8" fill="#f1c40f"/>
  
  <circle cx="300" cy="300" r="8" fill="#e74c3c"/>
  <circle cx="350" cy="350" r="8" fill="#e74c3c"/>
  <circle cx="550" cy="350" r="8" fill="#e74c3c"/>
  <circle cx="600" cy="300" r="8" fill="#e74c3c"/>
  <circle cx="800" cy="300" r="8" fill="#e74c3c"/>
  <circle cx="850" cy="350" r="8" fill="#e74c3c"/>
  <circle cx="1050" cy="350" r="8" fill="#e74c3c"/>
  <circle cx="1100" cy="300" r="8" fill="#e74c3c"/>
  
  <circle cx="400" cy="500" r="8" fill="#2ecc71"/>
  <circle cx="450" cy="450" r="8" fill="#2ecc71"/>
  <circle cx="650" cy="450" r="8" fill="#2ecc71"/>
  <circle cx="700" cy="500" r="8" fill="#2ecc71"/>
  <circle cx="900" cy="500" r="8" fill="#2ecc71"/>
  <circle cx="950" cy="450" r="8" fill="#2ecc71"/>
  <circle cx="1150" cy="450" r="8" fill="#2ecc71"/>
  
  <!-- Vertical Connections -->
  <line x1="250" y1="150" x2="300" y2="300" stroke="#ecf0f1" stroke-width="2"/>
  <line x1="450" y1="150" x2="400" y2="300" stroke="#ecf0f1" stroke-width="2"/>
  <line x1="550" y1="350" x2="500" y2="500" stroke="#ecf0f1" stroke-width="2"/>
  <line x1="850" y1="350" x2="900" y2="500" stroke="#ecf0f1" stroke-width="2"/>
  
  <!-- Digital Data Visualization -->
  <g opacity="0.7">
    <rect x="100" y="400" width="20" height="50" fill="#3498db"/>
    <rect x="130" y="380" width="20" height="70" fill="#3498db"/>
    <rect x="160" y="420" width="20" height="30" fill="#3498db"/>
    <rect x="190" y="360" width="20" height="90" fill="#3498db"/>
    <rect x="220" y="400" width="20" height="50" fill="#3498db"/>
  </g>
  
  <g opacity="0.7">
    <rect x="960" y="200" width="20" height="50" fill="#9b59b6"/>
    <rect x="990" y="180" width="20" height="70" fill="#9b59b6"/>
    <rect x="1020" y="220" width="20" height="30" fill="#9b59b6"/>
    <rect x="1050" y="160" width="20" height="90" fill="#9b59b6"/>
    <rect x="1080" y="200" width="20" height="50" fill="#9b59b6"/>
  </g>
  
  <!-- Main Title -->
  <text x="600" y="250" font-family="Arial" font-size="48" fill="#ffffff" text-anchor="middle" font-weight="bold">PALANTIRI</text>
  <text x="600" y="310" font-family="Arial" font-size="36" fill="#ffffff" text-anchor="middle">TECHNOLOGY & SERVICES</text>
  <text x="600" y="360" font-family="Arial" font-size="24" fill="#ecf0f1" text-anchor="middle">Powering Global Operations from Behind the Scenes</text>
</svg>
