<svg width="800" height="600" xmlns="http://www.w3.org/2000/svg">
  <defs>
    <linearGradient id="grad1" x1="0%" y1="0%" x2="100%" y2="100%">
      <stop offset="0%" style="stop-color:#16a085;stop-opacity:1" />
      <stop offset="100%" style="stop-color:#2980b9;stop-opacity:1" />
    </linearGradient>
  </defs>
  <rect width="100%" height="100%" fill="url(#grad1)"/>
  
  <!-- Communication Bubble Icons -->
  <!-- Left Chat Bubble -->
  <path d="M200,200 Q180,200 180,220 L180,300 Q180,320 200,320 L240,320 L260,350 L260,320 L300,320 Q320,320 320,300 L320,220 Q320,200 300,200 Z" 
        fill="#ecf0f1" stroke="#bdc3c7" stroke-width="3"/>
  
  <!-- Right Chat Bubble -->  
  <path d="M600,250 Q620,250 620,270 L620,350 Q620,370 600,370 L560,370 L540,400 L540,370 L500,370 Q480,370 480,350 L480,270 Q480,250 500,250 Z" 
        fill="#3498db" stroke="#2980b9" stroke-width="3"/>
  
  <!-- Document Icons -->
  <rect x="190" y="100" width="80" height="100" fill="#ecf0f1" stroke="#bdc3c7" stroke-width="2"/>
  <line x1="210" y1="120" x2="250" y2="120" stroke="#7f8c8d" stroke-width="2"/>
  <line x1="210" y1="140" x2="250" y2="140" stroke="#7f8c8d" stroke-width="2"/>
  <line x1="210" y1="160" x2="250" y2="160" stroke="#7f8c8d" stroke-width="2"/>
  <line x1="210" y1="180" x2="230" y2="180" stroke="#7f8c8d" stroke-width="2"/>
  
  <rect x="290" y="100" width="80" height="100" fill="#ecf0f1" stroke="#bdc3c7" stroke-width="2"/>
  <line x1="310" y1="120" x2="350" y2="120" stroke="#7f8c8d" stroke-width="2"/>
  <line x1="310" y1="140" x2="350" y2="140" stroke="#7f8c8d" stroke-width="2"/>
  <line x1="310" y1="160" x2="350" y2="160" stroke="#7f8c8d" stroke-width="2"/>
  <line x1="310" y1="180" x2="330" y2="180" stroke="#7f8c8d" stroke-width="2"/>
  
  <!-- Calendar Icon -->
  <rect x="530" y="100" width="100" height="130" fill="#ecf0f1" stroke="#bdc3c7" stroke-width="2"/>
  <rect x="530" y="100" width="100" height="25" fill="#e74c3c"/>
  <line x1="550" y1="140" x2="550" y2="220" stroke="#7f8c8d" stroke-width="1"/>
  <line x1="580" y1="140" x2="580" y2="220" stroke="#7f8c8d" stroke-width="1"/>
  <line x1="610" y1="140" x2="610" y2="220" stroke="#7f8c8d" stroke-width="1"/>
  <line x1="530" y1="160" x2="630" y2="160" stroke="#7f8c8d" stroke-width="1"/>
  <line x1="530" y1="190" x2="630" y2="190" stroke="#7f8c8d" stroke-width="1"/>
  
  <!-- Secure Connection Icons -->
  <path d="M400,450 C420,400 480,400 500,450" stroke="#2ecc71" stroke-width="8" fill="none"/>
  <path d="M350,450 C380,380 520,380 550,450" stroke="#f39c12" stroke-width="8" fill="none"/>
  <path d="M300,450 C345,350 555,350 600,450" stroke="#e74c3c" stroke-width="8" fill="none"/>
  
  <!-- Lock Icon -->
  <rect x="375" y="250" width="50" height="40" rx="5" ry="5" fill="#34495e"/>
  <rect x="385" y="230" width="30" height="25" rx="10" ry="10" fill="none" stroke="#34495e" stroke-width="8"/>
  
  <!-- Notification Icon -->
  <circle cx="200" cy="420" r="30" fill="#e74c3c"/>
  <text x="200" y="430" font-family="Arial" font-size="24" fill="#ffffff" text-anchor="middle">3</text>

  <!-- Sharing Icon -->
  <circle cx="600" cy="420" r="30" fill="#3498db"/>
  <path d="M590,420 L610,405 L610,415 L625,415 L625,425 L610,425 L610,435 Z" fill="#ffffff"/>
  
  <!-- Title -->
  <text x="400" y="50" font-family="Arial" font-size="32" fill="#ffffff" text-anchor="middle" font-weight="bold">CLIENT COMMUNICATION PORTAL</text>
  <text x="400" y="530" font-family="Arial" font-size="20" fill="#ffffff" text-anchor="middle">Secure Document Sharing and Messaging</text>
</svg>
