<svg width="800" height="600" xmlns="http://www.w3.org/2000/svg">
  <defs>
    <linearGradient id="grad1" x1="0%" y1="0%" x2="100%" y2="100%">
      <stop offset="0%" style="stop-color:#2c3e50;stop-opacity:1" />
      <stop offset="100%" style="stop-color:#3498db;stop-opacity:1" />
    </linearGradient>
  </defs>
  <rect width="100%" height="100%" fill="url(#grad1)"/>
  
  <!-- Leadership Icons -->
  <circle cx="400" cy="200" r="70" fill="#ecf0f1" stroke="#3498db" stroke-width="4"/>
  <circle cx="270" cy="330" r="60" fill="#ecf0f1" stroke="#e74c3c" stroke-width="4"/>
  <circle cx="530" cy="330" r="60" fill="#ecf0f1" stroke="#2ecc71" stroke-width="4"/>
  
  <!-- Person Silhouettes -->
  <path d="M400 160 Q400 140, 410 150 Q430 170, 420 180 Q410 190, 400 180 Q390 190, 380 180 Q370 170, 390 150 Q400 140, 400 160" fill="#34495e"/>
  <rect x="380" y="180" width="40" height="60" rx="10" ry="10" fill="#34495e"/>
  
  <path d="M270 290 Q270 270, 280 280 Q300 300, 290 310 Q280 320, 270 310 Q260 320, 250 310 Q240 300, 260 280 Q270 270, 270 290" fill="#34495e"/>
  <rect x="250" y="310" width="40" height="60" rx="10" ry="10" fill="#34495e"/>
  
  <path d="M530 290 Q530 270, 540 280 Q560 300, 550 310 Q540 320, 530 310 Q520 320, 510 310 Q500 300, 520 280 Q530 270, 530 290" fill="#34495e"/>
  <rect x="510" y="310" width="40" height="60" rx="10" ry="10" fill="#34495e"/>
  
  <!-- Connection Lines -->
  <line x1="310" y1="300" x2="360" y2="250" stroke="#3498db" stroke-width="3"/>
  <line x1="490" y1="300" x2="440" y2="250" stroke="#3498db" stroke-width="3"/>
  
  <!-- Technology Elements -->
  <polygon points="150,150 180,100 220,150 180,200" fill="#e74c3c" opacity="0.7"/>
  <polygon points="650,150 680,100 720,150 680,200" fill="#2ecc71" opacity="0.7"/>
  <polygon points="150,450 180,400 220,450 180,500" fill="#f39c12" opacity="0.7"/>
  <polygon points="650,450 680,400 720,450 680,500" fill="#9b59b6" opacity="0.7"/>
  
  <!-- Title -->
  <text x="400" y="100" font-family="Arial" font-size="32" fill="#ffffff" text-anchor="middle" font-weight="bold">LEADERSHIP TEAM</text>
  <text x="400" y="430" font-family="Arial" font-size="24" fill="#ffffff" text-anchor="middle">Technology Experts</text>
  <text x="400" y="470" font-family="Arial" font-size="18" fill="#ffffff" text-anchor="middle">Software Development • Database Management • Digital Operations</text>
</svg>
